<svg xmlns="http://www.w3.org/2000/svg" width="384" height="384" fill="none" viewBox="0 0 384 384"><g filter="url(#filter0_dd_818_3772)"><g filter="url(#filter1_ii_818_3772)"><g clip-path="url(#clip0_818_3772)"><path fill="url(#paint0_linear_818_3772)" d="M328 176H56C47.2 176 40 183.2 40 192V312C40 329.68 54.32 344 72 344H312C329.68 344 344 329.68 344 312V192C344 183.2 336.8 176 328 176Z"/><path stroke="url(#paint1_linear_818_3772)" stroke-opacity=".3" stroke-width="6" d="M56 179H328C335.143 179 341 184.857 341 192V312C341 328.023 328.023 341 312 341H72C55.9769 341 43 328.023 43 312V192C43 184.857 48.8569 179 56 179Z"/><path stroke="url(#paint2_linear_818_3772)" stroke-width="3" d="M56 177.5H328C335.972 177.5 342.5 184.028 342.5 192V312C342.5 328.851 328.852 342.5 312 342.5H72C55.1484 342.5 41.5 328.851 41.5 312V192C41.5 184.028 48.0284 177.5 56 177.5Z"/><path stroke="url(#paint3_linear_818_3772)" stroke-width="3" d="M56 177.5H328C335.972 177.5 342.5 184.028 342.5 192V312C342.5 328.851 328.852 342.5 312 342.5H72C55.1484 342.5 41.5 328.851 41.5 312V192C41.5 184.028 48.0284 177.5 56 177.5Z"/><g clip-path="url(#clip1_818_3772)" filter="url(#filter2_i_818_3772)"><mask id="mask0_818_3772" style="mask-type:alpha" width="304" height="57" x="40" y="175" maskUnits="userSpaceOnUse"><path fill="#2E3192" d="M344 176H40V232H344V176Z"/></mask><g mask="url(#mask0_818_3772)"><rect width="32" height="269.885" fill="#232634" transform="matrix(0.806067 0.591824 -0.692145 0.721758 170.805 29.1143)"/><rect width="44.425" height="269.885" fill="#fff" transform="matrix(0.806067 0.591824 -0.692145 0.721758 196.599 48.0527)"/><rect width="44.425" height="269.885" fill="#1D1E2B" transform="matrix(0.806067 0.591824 -0.692145 0.721758 232.408 74.3442)"/><rect width="44.425" height="269.885" fill="#fff" transform="matrix(0.806067 0.591824 -0.692145 0.721758 268.218 100.636)"/><rect width="44.425" height="269.885" fill="#1D1E2B" transform="matrix(0.806067 0.591824 -0.692145 0.721758 304.028 126.928)"/><rect width="64" height="269.885" fill="#fff" transform="matrix(0.806067 0.591824 -0.692145 0.721758 339.837 153.22)"/></g></g></g></g><g filter="url(#filter3_ii_818_3772)"><path fill="#2B2E40" d="M42.2117 135.182C38.7811 122.379 46.379 109.219 59.1822 105.788L306.459 39.5307C319.262 36.1001 332.423 43.698 335.853 56.5012L344.135 87.4109C346.422 95.9463 341.357 104.72 332.822 107.007L77.8172 175.335C65.014 178.766 51.8539 171.168 48.4233 158.364L42.2117 135.182Z"/><g filter="url(#filter4_i_818_3772)"><g clip-path="url(#clip2_818_3772)"><mask id="mask1_818_3772" style="mask-type:alpha" width="309" height="133" x="38" y="41" maskUnits="userSpaceOnUse"><path fill="#2E3192" d="M38.0679 119.728L331.709 41.0469L346.203 95.1387L52.5618 173.82L38.0679 119.728Z"/></mask><g mask="url(#mask1_818_3772)"><rect width="64" height="269.885" fill="#fff" transform="matrix(-0.625425 0.780284 0.855366 0.518024 167.346 -66.9785)"/><rect width="46.425" height="269.885" fill="#1D1E2A" transform="matrix(-0.625425 0.780284 0.855366 0.518024 127.319 -17.0405)"/><rect width="46.425" height="269.885" fill="#fff" transform="matrix(-0.625425 0.780284 0.855366 0.518024 98.2834 19.1846)"/><rect width="46.425" height="269.885" fill="#1D1E2A" transform="matrix(-0.625425 0.780284 0.855366 0.518024 69.248 55.4092)"/><rect width="46.425" height="269.885" fill="#fff" transform="matrix(-0.625425 0.780284 0.855366 0.518024 40.2126 91.6338)"/><rect width="24" height="269.885" fill="#232634" transform="matrix(-0.625425 0.780284 0.855366 0.518024 11.1772 127.858)"/></g></g></g></g><path fill="url(#paint4_linear_818_3772)" stroke="url(#paint5_linear_818_3772)" stroke-width="3" d="M105.898 173.46L107.161 174.725C109.261 177.253 110.5 180.433 110.5 183.92C110.5 191.891 103.972 198.42 96 198.42H56C48.0285 198.42 41.5761 191.97 41.5 184.073V143.92C41.5 135.948 48.0284 129.42 56 129.42C59.9744 129.42 63.6 131.082 66.2185 133.7C66.2188 133.7 66.2191 133.7 66.2193 133.701L105.898 173.46Z"/><path fill="#636887" d="M56 152C60.4183 152 64 148.418 64 144C64 139.582 60.4183 136 56 136C51.5817 136 48 139.582 48 144C48 148.418 51.5817 152 56 152Z"/><path fill="#636887" d="M56 192C60.4183 192 64 188.418 64 184C64 179.582 60.4183 176 56 176C51.5817 176 48 179.582 48 184C48 188.418 51.5817 192 56 192Z"/><path fill="#636887" d="M96 192C100.418 192 104 188.418 104 184C104 179.582 100.418 176 96 176C91.5817 176 88 179.582 88 184C88 188.418 91.5817 192 96 192Z"/></g><defs><filter id="filter0_dd_818_3772" width="316.684" height="317.293" x="34" y="35.707" color-interpolation-filters="sRGB" filterUnits="userSpaceOnUse"><feFlood flood-opacity="0" result="BackgroundImageFix"/><feColorMatrix in="SourceAlpha" result="hardAlpha" type="matrix" values="0 0 0 0 0 0 0 0 0 0 0 0 0 0 0 0 0 0 127 0"/><feOffset dy="3"/><feGaussianBlur stdDeviation="3"/><feColorMatrix type="matrix" values="0 0 0 0 0 0 0 0 0 0 0 0 0 0 0 0 0 0 0.12 0"/><feBlend in2="BackgroundImageFix" mode="normal" result="effect1_dropShadow_818_3772"/><feColorMatrix in="SourceAlpha" result="hardAlpha" type="matrix" values="0 0 0 0 0 0 0 0 0 0 0 0 0 0 0 0 0 0 127 0"/><feOffset dy="1.5"/><feGaussianBlur stdDeviation="1.5"/><feColorMatrix type="matrix" values="0 0 0 0 0 0 0 0 0 0 0 0 0 0 0 0 0 0 0.4 0"/><feBlend in2="effect1_dropShadow_818_3772" mode="normal" result="effect2_dropShadow_818_3772"/><feBlend in="SourceGraphic" in2="effect2_dropShadow_818_3772" mode="normal" result="shape"/></filter><filter id="filter1_ii_818_3772" width="304" height="189" x="40" y="158" color-interpolation-filters="sRGB" filterUnits="userSpaceOnUse"><feFlood flood-opacity="0" result="BackgroundImageFix"/><feBlend in="SourceGraphic" in2="BackgroundImageFix" mode="normal" result="shape"/><feColorMatrix in="SourceAlpha" result="hardAlpha" type="matrix" values="0 0 0 0 0 0 0 0 0 0 0 0 0 0 0 0 0 0 127 0"/><feOffset dy="-18"/><feGaussianBlur stdDeviation="12"/><feComposite in2="hardAlpha" k2="-1" k3="1" operator="arithmetic"/><feColorMatrix type="matrix" values="0 0 0 0 0.16 0 0 0 0 0.173333 0 0 0 0 0.24 0 0 0 0.6 0"/><feBlend in2="shape" mode="normal" result="effect1_innerShadow_818_3772"/><feColorMatrix in="SourceAlpha" result="hardAlpha" type="matrix" values="0 0 0 0 0 0 0 0 0 0 0 0 0 0 0 0 0 0 127 0"/><feOffset dy="3"/><feGaussianBlur stdDeviation="3"/><feComposite in2="hardAlpha" k2="-1" k3="1" operator="arithmetic"/><feColorMatrix type="matrix" values="0 0 0 0 0.56525 0 0 0 0 0.518576 0 0 0 0 0.69809 0 0 0 0.15 0"/><feBlend in2="effect1_innerShadow_818_3772" mode="normal" result="effect2_innerShadow_818_3772"/></filter><filter id="filter2_i_818_3772" width="304" height="48" x="40" y="176" color-interpolation-filters="sRGB" filterUnits="userSpaceOnUse"><feFlood flood-opacity="0" result="BackgroundImageFix"/><feBlend in="SourceGraphic" in2="BackgroundImageFix" mode="normal" result="shape"/><feColorMatrix in="SourceAlpha" result="hardAlpha" type="matrix" values="0 0 0 0 0 0 0 0 0 0 0 0 0 0 0 0 0 0 127 0"/><feOffset/><feGaussianBlur stdDeviation="8.143"/><feComposite in2="hardAlpha" k2="-1" k3="1" operator="arithmetic"/><feColorMatrix type="matrix" values="0 0 0 0 0.466904 0 0 0 0 0.437708 0 0 0 0 0.55 0 0 0 0.25 0"/><feBlend in2="shape" mode="normal" result="effect1_innerShadow_818_3772"/></filter><filter id="filter3_ii_818_3772" width="303.297" height="150.492" x="41.388" y="25.667" color-interpolation-filters="sRGB" filterUnits="userSpaceOnUse"><feFlood flood-opacity="0" result="BackgroundImageFix"/><feBlend in="SourceGraphic" in2="BackgroundImageFix" mode="normal" result="shape"/><feColorMatrix in="SourceAlpha" result="hardAlpha" type="matrix" values="0 0 0 0 0 0 0 0 0 0 0 0 0 0 0 0 0 0 127 0"/><feOffset dy="-13.04"/><feGaussianBlur stdDeviation="8.693"/><feComposite in2="hardAlpha" k2="-1" k3="1" operator="arithmetic"/><feColorMatrix type="matrix" values="0 0 0 0 0.137838 0 0 0 0 0.12783 0 0 0 0 0.154167 0 0 0 0.25 0"/><feBlend in2="shape" mode="normal" result="effect1_innerShadow_818_3772"/><feColorMatrix in="SourceAlpha" result="hardAlpha" type="matrix" values="0 0 0 0 0 0 0 0 0 0 0 0 0 0 0 0 0 0 127 0"/><feOffset dy="4.072"/><feComposite in2="hardAlpha" k2="-1" k3="1" operator="arithmetic"/><feColorMatrix type="matrix" values="0 0 0 0 0.225 0 0 0 0 0.225 0 0 0 0 0.225 0 0 0 0.25 0"/><feBlend in2="effect1_innerShadow_818_3772" mode="normal" result="effect2_innerShadow_818_3772"/></filter><filter id="filter4_i_818_3772" width="292.681" height="128.632" x="45.795" y="43.117" color-interpolation-filters="sRGB" filterUnits="userSpaceOnUse"><feFlood flood-opacity="0" result="BackgroundImageFix"/><feBlend in="SourceGraphic" in2="BackgroundImageFix" mode="normal" result="shape"/><feColorMatrix in="SourceAlpha" result="hardAlpha" type="matrix" values="0 0 0 0 0 0 0 0 0 0 0 0 0 0 0 0 0 0 127 0"/><feOffset/><feGaussianBlur stdDeviation="8.143"/><feComposite in2="hardAlpha" k2="-1" k3="1" operator="arithmetic"/><feColorMatrix type="matrix" values="0 0 0 0 0.466904 0 0 0 0 0.437708 0 0 0 0 0.55 0 0 0 0.25 0"/><feBlend in2="shape" mode="normal" result="effect1_innerShadow_818_3772"/></filter><linearGradient id="paint0_linear_818_3772" x1="192" x2="192" y1="176" y2="344" gradientUnits="userSpaceOnUse"><stop stop-color="#35384A"/><stop offset="1" stop-color="#1E202F"/></linearGradient><linearGradient id="paint1_linear_818_3772" x1="192" x2="192" y1="176" y2="344" gradientUnits="userSpaceOnUse"><stop stop-color="#4A4067" stop-opacity="0"/><stop offset="1" stop-color="#3742A4"/></linearGradient><linearGradient id="paint2_linear_818_3772" x1="192" x2="192" y1="176" y2="344" gradientUnits="userSpaceOnUse"><stop stop-color="#28293C"/><stop offset="1" stop-color="#28293C" stop-opacity="0"/></linearGradient><linearGradient id="paint3_linear_818_3772" x1="192" x2="192" y1="176" y2="344" gradientUnits="userSpaceOnUse"><stop stop-color="#121523" stop-opacity="0"/><stop offset="1" stop-color="#121523"/></linearGradient><linearGradient id="paint4_linear_818_3772" x1="67.021" x2="104.793" y1="151.354" y2="196.331" gradientUnits="userSpaceOnUse"><stop stop-color="#343951"/><stop offset="1" stop-color="#2A2F3E"/></linearGradient><linearGradient id="paint5_linear_818_3772" x1="76" x2="76" y1="127.92" y2="199.92" gradientUnits="userSpaceOnUse"><stop stop-color="#444A67"/><stop offset="1" stop-color="#7A85B9" stop-opacity="0"/></linearGradient><clipPath id="clip0_818_3772"><path fill="#fff" d="M40 192C40 183.163 47.1634 176 56 176H328C336.837 176 344 183.163 344 192V344H40V192Z"/></clipPath><clipPath id="clip1_818_3772"><rect width="304" height="48" fill="#fff" transform="translate(40 176)"/></clipPath><clipPath id="clip2_818_3772"><path fill="#fff" d="M49.9364 133.112C47.6494 124.577 52.7147 115.803 61.2501 113.516L308.527 47.2584C317.063 44.9714 325.836 50.0367 328.123 58.5722L336.405 89.4818C337.549 93.7495 335.016 98.1362 330.748 99.2797L75.744 167.608C67.2085 169.895 58.4351 164.83 56.1481 156.294L49.9364 133.112Z"/></clipPath></defs></svg>